# Blender v2.80 (sub 75) OBJ File: ''
# www.blender.org
o Cube_Cube.001
v -1.000000 -0.039703 0.009360
v -1.000000 0.039703 0.009360
v -1.000000 0.000000 0.009360
v -0.714977 -0.039703 0.562530
v -1.000000 -0.039703 0.277507
v -0.744770 -0.039703 0.560969
v -0.774236 -0.039703 0.556302
v -0.803054 -0.039703 0.548580
v -0.830906 -0.039703 0.537889
v -0.857488 -0.039703 0.524344
v -0.882509 -0.039703 0.508096
v -0.905694 -0.039703 0.489320
v -0.926790 -0.039703 0.468225
v -0.945565 -0.039703 0.445039
v -0.961814 -0.039703 0.420018
v -0.975358 -0.039703 0.393436
v -0.986050 -0.039703 0.365584
v -0.993772 -0.039703 0.336766
v -0.998439 -0.039703 0.307300
v -1.000000 0.039703 0.277507
v -0.714977 0.039703 0.562530
v -0.998439 0.039703 0.307300
v -0.993772 0.039703 0.336766
v -0.986050 0.039703 0.365584
v -0.975358 0.039703 0.393436
v -0.961814 0.039703 0.420018
v -0.945565 0.039703 0.445039
v -0.926790 0.039703 0.468225
v -0.905694 0.039703 0.489320
v -0.882509 0.039703 0.508096
v -0.857488 0.039703 0.524344
v -0.830906 0.039703 0.537889
v -0.803054 0.039703 0.548580
v -0.774236 0.039703 0.556302
v -0.744770 0.039703 0.560969
v -0.714977 0.000000 0.562530
v -1.000000 0.000000 0.277507
v -0.744770 0.000000 0.560969
v -0.774236 0.000000 0.556302
v -0.803054 0.000000 0.548580
v -0.830906 0.000000 0.537889
v -0.857488 0.000000 0.524344
v -0.882509 0.000000 0.508096
v -0.905694 0.000000 0.489320
v -0.926790 0.000000 0.468225
v -0.945565 0.000000 0.445039
v -0.961814 0.000000 0.420018
v -0.975358 0.000000 0.393436
v -0.986050 0.000000 0.365584
v -0.993772 0.000000 0.336766
v -0.998439 0.000000 0.307300
v 0.000000 -0.039703 0.562530
v 0.000000 0.039703 0.562530
v 1.000000 -0.039703 0.009360
v 1.000000 0.039703 0.009360
v 0.000000 0.039703 0.009360
v 0.000000 -0.039703 0.009360
v 1.000000 0.000000 0.009360
v 0.000000 0.000000 0.562530
v 0.714977 -0.039703 0.562530
v 1.000000 -0.039703 0.277507
v 0.744770 -0.039703 0.560969
v 0.774236 -0.039703 0.556302
v 0.803054 -0.039703 0.548580
v 0.830906 -0.039703 0.537889
v 0.857488 -0.039703 0.524344
v 0.882509 -0.039703 0.508096
v 0.905694 -0.039703 0.489320
v 0.926790 -0.039703 0.468225
v 0.945565 -0.039703 0.445039
v 0.961814 -0.039703 0.420018
v 0.975358 -0.039703 0.393436
v 0.986050 -0.039703 0.365584
v 0.993772 -0.039703 0.336766
v 0.998439 -0.039703 0.307300
v 1.000000 0.039703 0.277507
v 0.714977 0.039703 0.562530
v 0.998439 0.039703 0.307300
v 0.993772 0.039703 0.336766
v 0.986050 0.039703 0.365584
v 0.975358 0.039703 0.393436
v 0.961814 0.039703 0.420018
v 0.945565 0.039703 0.445039
v 0.926790 0.039703 0.468225
v 0.905694 0.039703 0.489320
v 0.882509 0.039703 0.508096
v 0.857488 0.039703 0.524344
v 0.830906 0.039703 0.537889
v 0.803054 0.039703 0.548580
v 0.774236 0.039703 0.556302
v 0.744770 0.039703 0.560969
v 0.714977 0.000000 0.562530
v 1.000000 0.000000 0.277507
v 0.744770 0.000000 0.560969
v 0.774236 0.000000 0.556302
v 0.803054 0.000000 0.548580
v 0.830906 0.000000 0.537889
v 0.857488 0.000000 0.524344
v 0.882509 0.000000 0.508096
v 0.905694 0.000000 0.489320
v 0.926790 0.000000 0.468225
v 0.945565 0.000000 0.445039
v 0.961814 0.000000 0.420018
v 0.975358 0.000000 0.393436
v 0.986050 0.000000 0.365584
v 0.993772 0.000000 0.336766
v 0.998439 0.000000 0.307300
vt 0.500000 0.535628
vt 0.625000 0.535628
vt 0.625000 0.625000
vt 0.500000 0.625000
vt 0.250000 0.625000
vt 0.750000 0.625000
vt 0.500000 0.375000
vt 0.625000 0.375000
vt 0.625000 0.464372
vt 0.500000 0.464372
vt 0.625065 0.531904
vt 0.625260 0.528221
vt 0.625581 0.524618
vt 0.626027 0.521137
vt 0.626591 0.517814
vt 0.627268 0.514686
vt 0.628050 0.511788
vt 0.628929 0.495192
vt 0.629895 0.492477
vt 0.630938 0.489715
vt 0.632046 0.486936
vt 0.633206 0.484169
vt 0.634407 0.481446
vt 0.635635 0.478796
vt 0.660628 0.500000
vt 0.750000 0.500000
vt 0.375000 0.625000
vt 0.250000 0.500000
vt 0.339372 0.500000
vt 0.364365 0.478796
vt 0.365593 0.481446
vt 0.366794 0.484169
vt 0.367954 0.486936
vt 0.369062 0.489715
vt 0.370105 0.492477
vt 0.371071 0.495192
vt 0.371950 0.511788
vt 0.372732 0.514686
vt 0.373409 0.517814
vt 0.373973 0.521137
vt 0.374419 0.524618
vt 0.374740 0.528221
vt 0.374935 0.531904
vt 0.375000 0.535628
vt 0.500000 0.531904
vt 0.500000 0.528220
vt 0.500000 0.524618
vt 0.500000 0.521137
vt 0.500000 0.517814
vt 0.500000 0.514686
vt 0.500000 0.511788
vt 0.500000 0.488212
vt 0.500000 0.485314
vt 0.500000 0.482186
vt 0.500000 0.478863
vt 0.500000 0.475382
vt 0.500000 0.471780
vt 0.500000 0.468096
vt 0.375000 0.464372
vt 0.375000 0.375000
vt 0.500000 0.535628
vt 0.500000 0.625000
vt 0.625000 0.625000
vt 0.625000 0.535628
vt 0.500000 0.464372
vt 0.625000 0.464372
vt 0.660628 0.500000
vt 0.635635 0.478796
vt 0.634407 0.481446
vt 0.633206 0.484169
vt 0.632046 0.486936
vt 0.630938 0.489715
vt 0.629895 0.492477
vt 0.628929 0.495192
vt 0.628050 0.511788
vt 0.627268 0.514686
vt 0.626591 0.517814
vt 0.626027 0.521137
vt 0.625581 0.524618
vt 0.625260 0.528221
vt 0.625065 0.531904
vt 0.375000 0.625000
vt 0.375000 0.535628
vt 0.374935 0.531904
vt 0.374740 0.528221
vt 0.374419 0.524618
vt 0.373973 0.521137
vt 0.373409 0.517814
vt 0.372732 0.514686
vt 0.371950 0.511788
vt 0.371071 0.495192
vt 0.370105 0.492477
vt 0.369062 0.489715
vt 0.367954 0.486936
vt 0.366794 0.484169
vt 0.365593 0.481446
vt 0.364365 0.478796
vt 0.339372 0.500000
vt 0.500000 0.531904
vt 0.500000 0.528220
vt 0.500000 0.524618
vt 0.500000 0.521137
vt 0.500000 0.517814
vt 0.500000 0.514686
vt 0.500000 0.511788
vt 0.500000 0.488212
vt 0.500000 0.485314
vt 0.500000 0.482186
vt 0.500000 0.478863
vt 0.500000 0.475382
vt 0.500000 0.471780
vt 0.500000 0.468096
vt 0.375000 0.464372
vn -1.0000 0.0000 0.0000
vn 0.0000 0.0000 -1.0000
vn 0.0000 0.0000 1.0000
vn 0.0000 1.0000 0.0000
vn 0.0000 -1.0000 0.0000
vn -0.9986 0.0000 0.0523
vn -0.9877 0.0000 0.1564
vn -0.9659 0.0000 0.2588
vn -0.9336 0.0000 0.3584
vn -0.8910 0.0000 0.4540
vn -0.8387 0.0000 0.5446
vn -0.7771 0.0000 0.6293
vn -0.7071 0.0000 0.7071
vn -0.6293 0.0000 0.7771
vn -0.5446 0.0000 0.8387
vn -0.4540 0.0000 0.8910
vn -0.3584 0.0000 0.9336
vn -0.2588 0.0000 0.9659
vn -0.1564 0.0000 0.9877
vn -0.0523 0.0000 0.9986
vn 1.0000 0.0000 0.0000
vn 0.9986 0.0000 0.0523
vn 0.9877 0.0000 0.1564
vn 0.9659 0.0000 0.2588
vn 0.9336 0.0000 0.3584
vn 0.8910 0.0000 0.4540
vn 0.8387 0.0000 0.5446
vn 0.7771 0.0000 0.6293
vn 0.7071 0.0000 0.7071
vn 0.6293 0.0000 0.7771
vn 0.5446 0.0000 0.8387
vn 0.4540 0.0000 0.8910
vn 0.3584 0.0000 0.9336
vn 0.2588 0.0000 0.9659
vn 0.1564 0.0000 0.9877
vn 0.0523 0.0000 0.9986
s off
f 37/1/1 20/2/1 2/3/1 3/4/1
f 57/5/2 2/3/2 56/6/2
f 59/7/3 53/8/3 21/9/3 36/10/3
f 20/2/4 22/11/4 23/12/4 24/13/4 25/14/4 26/15/4 27/16/4 28/17/4 29/18/4 30/19/4 31/20/4 32/21/4 33/22/4 34/23/4 35/24/4 21/25/4 53/26/4 56/6/4 2/3/4
f 1/27/2 3/4/2 2/3/2 57/5/2
f 52/28/5 4/29/5 6/30/5 7/31/5 8/32/5 9/33/5 10/34/5 11/35/5 12/36/5 13/37/5 14/38/5 15/39/5 16/40/5 17/41/5 18/42/5 19/43/5 5/44/5 1/27/5 57/5/5
f 5/44/1 37/1/1 3/4/1 1/27/1
f 37/1/6 5/44/6 19/43/6 51/45/6
f 51/45/7 19/43/7 18/42/7 50/46/7
f 50/46/8 18/42/8 17/41/8 49/47/8
f 49/47/9 17/41/9 16/40/9 48/48/9
f 48/48/10 16/40/10 15/39/10 47/49/10
f 47/49/11 15/39/11 14/38/11 46/50/11
f 46/50/12 14/38/12 13/37/12 45/51/12
f 45/51/13 13/37/13 12/36/13 44/52/13
f 44/52/14 12/36/14 11/35/14 43/53/14
f 43/53/15 11/35/15 10/34/15 42/54/15
f 42/54/16 10/34/16 9/33/16 41/55/16
f 41/55/17 9/33/17 8/32/17 40/56/17
f 40/56/18 8/32/18 7/31/18 39/57/18
f 39/57/19 7/31/19 6/30/19 38/58/19
f 38/58/20 6/30/20 4/59/20 36/10/20
f 20/2/6 37/1/6 51/45/6 22/11/6
f 22/11/7 51/45/7 50/46/7 23/12/7
f 23/12/8 50/46/8 49/47/8 24/13/8
f 24/13/9 49/47/9 48/48/9 25/14/9
f 25/14/10 48/48/10 47/49/10 26/15/10
f 26/15/11 47/49/11 46/50/11 27/16/11
f 27/16/12 46/50/12 45/51/12 28/17/12
f 28/17/13 45/51/13 44/52/13 29/18/13
f 29/18/14 44/52/14 43/53/14 30/19/14
f 30/19/15 43/53/15 42/54/15 31/20/15
f 31/20/16 42/54/16 41/55/16 32/21/16
f 32/21/17 41/55/17 40/56/17 33/22/17
f 33/22/18 40/56/18 39/57/18 34/23/18
f 34/23/19 39/57/19 38/58/19 35/24/19
f 35/24/20 38/58/20 36/10/20 21/9/20
f 52/60/3 59/7/3 36/10/3 4/59/3
f 93/61/21 58/62/21 55/63/21 76/64/21
f 57/5/2 56/6/2 55/63/2
f 59/7/3 92/65/3 77/66/3 53/8/3
f 76/64/4 55/63/4 56/6/4 53/26/4 77/67/4 91/68/4 90/69/4 89/70/4 88/71/4 87/72/4 86/73/4 85/74/4 84/75/4 83/76/4 82/77/4 81/78/4 80/79/4 79/80/4 78/81/4
f 54/82/2 57/5/2 55/63/2 58/62/2
f 52/28/5 57/5/5 54/82/5 61/83/5 75/84/5 74/85/5 73/86/5 72/87/5 71/88/5 70/89/5 69/90/5 68/91/5 67/92/5 66/93/5 65/94/5 64/95/5 63/96/5 62/97/5 60/98/5
f 61/83/21 54/82/21 58/62/21 93/61/21
f 93/61/22 107/99/22 75/84/22 61/83/22
f 107/99/23 106/100/23 74/85/23 75/84/23
f 106/100/24 105/101/24 73/86/24 74/85/24
f 105/101/25 104/102/25 72/87/25 73/86/25
f 104/102/26 103/103/26 71/88/26 72/87/26
f 103/103/27 102/104/27 70/89/27 71/88/27
f 102/104/28 101/105/28 69/90/28 70/89/28
f 101/105/29 100/106/29 68/91/29 69/90/29
f 100/106/30 99/107/30 67/92/30 68/91/30
f 99/107/31 98/108/31 66/93/31 67/92/31
f 98/108/32 97/109/32 65/94/32 66/93/32
f 97/109/33 96/110/33 64/95/33 65/94/33
f 96/110/34 95/111/34 63/96/34 64/95/34
f 95/111/35 94/112/35 62/97/35 63/96/35
f 94/112/36 92/65/36 60/113/36 62/97/36
f 76/64/22 78/81/22 107/99/22 93/61/22
f 78/81/23 79/80/23 106/100/23 107/99/23
f 79/80/24 80/79/24 105/101/24 106/100/24
f 80/79/25 81/78/25 104/102/25 105/101/25
f 81/78/26 82/77/26 103/103/26 104/102/26
f 82/77/27 83/76/27 102/104/27 103/103/27
f 83/76/28 84/75/28 101/105/28 102/104/28
f 84/75/29 85/74/29 100/106/29 101/105/29
f 85/74/30 86/73/30 99/107/30 100/106/30
f 86/73/31 87/72/31 98/108/31 99/107/31
f 87/72/32 88/71/32 97/109/32 98/108/32
f 88/71/33 89/70/33 96/110/33 97/109/33
f 89/70/34 90/69/34 95/111/34 96/110/34
f 90/69/35 91/68/35 94/112/35 95/111/35
f 91/68/36 77/66/36 92/65/36 94/112/36
f 52/60/3 60/113/3 92/65/3 59/7/3
