# Blender v2.80 (sub 75) OBJ File: ''
# www.blender.org
o Circle
v 0.000000 1.805085 -1.000000
v -0.000000 2.000175 -0.980785
v -0.000000 2.187768 -0.923880
v -0.000000 2.360655 -0.831470
v -0.000000 2.512192 -0.707107
v -0.000000 2.636554 -0.555570
v -0.000000 2.728964 -0.382683
v -0.000000 2.785870 -0.195090
v -0.000000 2.805085 -0.000000
v -0.000000 2.785870 0.195090
v -0.000000 2.728964 0.382683
v -0.000000 2.636554 0.555570
v -0.000000 2.512192 0.707107
v -0.000000 2.360655 0.831470
v -0.000000 2.187768 0.923880
v -0.000000 2.000175 0.980785
v 0.000000 1.805084 1.000000
v 0.013136 1.563668 0.935894
v 0.033977 1.337346 0.814506
v 0.021860 1.097978 0.653249
v 0.000000 0.658355 0.371420
v 0.000000 0.033266 -0.000001
v 0.000000 0.658356 -0.371422
v 0.021860 1.097979 -0.653250
v 0.033977 1.337347 -0.814506
v 0.013136 1.563669 -0.935894
v 0.574012 1.805085 -1.000000
v 0.574012 2.000175 -0.980785
v 0.574012 2.187768 -0.923880
v 0.574012 2.360655 -0.831470
v 0.574012 2.512192 -0.707107
v 0.574012 2.636554 -0.555570
v 0.574012 2.728964 -0.382683
v 0.574012 2.785870 -0.195090
v 0.574012 2.805085 -0.000000
v 0.574012 2.785870 0.195090
v 0.574012 2.728964 0.382683
v 0.574012 2.636554 0.555570
v 0.574012 2.512192 0.707107
v 0.574012 2.360655 0.831470
v 0.574012 2.187768 0.923880
v 0.574012 2.000175 0.980785
v 0.574012 1.805085 1.000000
v 0.560876 1.563668 0.935894
v 0.540035 1.337346 0.814506
v 0.552152 1.097978 0.653249
v 0.574012 0.658355 0.371420
v 0.574012 0.033266 -0.000001
v 0.574012 0.658356 -0.371422
v 0.552152 1.097979 -0.653250
v 0.540035 1.337348 -0.814506
v 0.560876 1.563670 -0.935894
vt 0.000000 0.000000
vt 0.000000 0.000000
vt 0.000000 0.000000
vt 0.000000 0.000000
vt 0.000000 0.000000
vt 0.000000 0.000000
vt 0.000000 0.000000
vt 0.000000 0.000000
vt 0.000000 0.000000
vt 0.000000 0.000000
vt 0.000000 0.000000
vt 0.000000 0.000000
vt 0.000000 0.000000
vt 0.000000 0.000000
vt 0.000000 0.000000
vt 0.000000 0.000000
vt 0.000000 0.000000
vt 0.000000 0.000000
vt 0.000000 0.000000
vt 0.000000 0.000000
vt 0.000000 0.000000
vt 0.000000 0.000000
vt 0.000000 0.000000
vt 0.000000 0.000000
vt 0.000000 0.000000
vt 0.000000 0.000000
vt 0.000000 0.000000
vt 0.000000 0.000000
vt 0.000000 0.000000
vt 0.000000 0.000000
vt 0.000000 0.000000
vt 0.000000 0.000000
vt 0.000000 0.000000
vt 0.000000 0.000000
vt 0.000000 0.000000
vt 0.000000 0.000000
vt 0.000000 0.000000
vt 0.000000 0.000000
vt 0.000000 0.000000
vt 0.000000 0.000000
vt 0.000000 0.000000
vt 0.000000 0.000000
vt 0.000000 0.000000
vt 0.000000 0.000000
vt 0.000000 0.000000
vt 0.000000 0.000000
vt 0.000000 0.000000
vt 0.000000 0.000000
vt 0.000000 0.000000
vt 0.000000 0.000000
vt 0.000000 0.000000
vt 0.000000 0.000000
vn 0.0000 -0.2903 0.9569
vn 0.0000 -0.0980 -0.9952
vn 0.0000 -0.4714 0.8819
vn 0.0000 0.2566 -0.9665
vn 0.0000 -0.6344 0.7730
vn 0.0000 0.4727 0.8812
vn 0.0000 0.4727 -0.8812
vn 0.0000 -0.7730 0.6344
vn -0.0000 0.2566 0.9665
vn 0.0000 0.5587 -0.8294
vn 0.0000 -0.8819 0.4714
vn -0.0000 0.5587 0.8294
vn 0.0000 -0.9569 0.2903
vn 0.0000 -0.9952 0.0980
vn 0.0000 -0.9952 -0.0980
vn 0.0000 -0.9569 -0.2903
vn 0.0000 0.5108 -0.8597
vn 0.0000 -0.8819 -0.4714
vn 0.0000 0.5108 0.8597
vn 0.0000 -0.7730 -0.6344
vn -1.0000 0.0063 0.0000
vn 0.0000 -0.6344 -0.7730
vn -0.0000 0.5397 0.8419
vn 0.0000 -0.4714 -0.8819
vn 0.0000 -0.0980 0.9952
vn 0.0000 0.5397 -0.8419
vn 0.0000 -0.2903 -0.9569
vn 1.0000 0.0063 0.0000
s off
f 3/1/1 2/2/1 28/3/1 29/4/1
f 17/5/2 16/6/2 42/7/2 43/8/2
f 4/9/3 3/1/3 29/4/3 30/10/3
f 18/11/4 17/5/4 43/8/4 44/12/4
f 5/13/5 4/9/5 30/10/5 31/14/5
f 26/15/6 25/16/6 51/17/6 52/18/6
f 19/19/7 18/11/7 44/12/7 45/20/7
f 6/21/8 5/13/8 31/14/8 32/22/8
f 1/23/9 26/15/9 52/18/9 27/24/9
f 20/25/10 19/19/10 45/20/10 46/26/10
f 7/27/11 6/21/11 32/22/11 33/28/11
f 24/29/12 50/30/12 51/17/12 25/16/12
f 8/31/13 7/27/13 33/28/13 34/32/13
f 9/33/14 8/31/14 34/32/14 35/34/14
f 10/35/15 9/33/15 35/34/15 36/36/15
f 11/37/16 10/35/16 36/36/16 37/38/16
f 22/39/17 21/40/17 47/41/17 48/42/17
f 12/43/18 11/37/18 37/38/18 38/44/18
f 23/45/19 22/39/19 48/42/19 49/46/19
f 13/47/20 12/43/20 38/44/20 39/48/20
f 28/3/21 27/24/21 52/18/21 51/17/21 50/30/21 49/46/21 48/42/21 47/41/21 46/26/21 45/20/21 44/12/21 43/8/21 42/7/21 41/49/21 40/50/21 39/48/21 38/44/21 37/38/21 36/36/21 35/34/21 34/32/21 33/28/21 32/22/21 31/14/21 30/10/21 29/4/21
f 14/51/22 13/47/22 39/48/22 40/50/22
f 24/29/23 23/45/23 49/46/23 50/30/23
f 15/52/24 14/51/24 40/50/24 41/49/24
f 2/2/25 1/23/25 27/24/25 28/3/25
f 20/25/26 46/26/26 47/41/26 21/40/26
f 16/6/27 15/52/27 41/49/27 42/7/27
f 2/2/28 3/1/28 4/9/28 5/13/28 6/21/28 7/27/28 8/31/28 9/33/28 10/35/28 11/37/28 12/43/28 14/51/28 15/52/28 16/6/28 17/5/28 18/11/28 19/19/28 20/25/28 21/40/28 22/39/28 23/45/28 24/29/28 25/16/28 26/15/28 1/23/28
